<svg width="43" height="43" viewBox="0 0 43 43" fill="none" xmlns="http://www.w3.org/2000/svg">
<path d="M34.6389 21.5C33.6885 21.5 32.7771 21.1225 32.1051 20.4505C31.4331 19.7785 31.0556 18.867 31.0556 17.9167C31.0556 16.9663 31.4331 16.0549 32.1051 15.3829C32.7771 14.7109 33.6885 14.3333 34.6389 14.3333C35.5892 14.3333 36.5007 14.7109 37.1727 15.3829C37.8447 16.0549 38.2222 16.9663 38.2222 17.9167C38.2222 18.867 37.8447 19.7785 37.1727 20.4505C36.5007 21.1225 35.5892 21.5 34.6389 21.5ZM27.4722 11.9444C26.5219 11.9444 25.6104 11.5669 24.9384 10.8949C24.2664 10.2229 23.8889 9.31147 23.8889 8.36111C23.8889 7.41075 24.2664 6.49932 24.9384 5.82731C25.6104 5.15531 26.5219 4.77778 27.4722 4.77778C28.4226 4.77778 29.334 5.15531 30.006 5.82731C30.678 6.49932 31.0556 7.41075 31.0556 8.36111C31.0556 9.31147 30.678 10.2229 30.006 10.8949C29.334 11.5669 28.4226 11.9444 27.4722 11.9444ZM15.5278 11.9444C14.5774 11.9444 13.666 11.5669 12.994 10.8949C12.322 10.2229 11.9444 9.31147 11.9444 8.36111C11.9444 7.41075 12.322 6.49932 12.994 5.82731C13.666 5.15531 14.5774 4.77778 15.5278 4.77778C16.4781 4.77778 17.3896 5.15531 18.0616 5.82731C18.7336 6.49932 19.1111 7.41075 19.1111 8.36111C19.1111 9.31147 18.7336 10.2229 18.0616 10.8949C17.3896 11.5669 16.4781 11.9444 15.5278 11.9444ZM8.36111 21.5C7.41075 21.5 6.49932 21.1225 5.82731 20.4505C5.15531 19.7785 4.77778 18.867 4.77778 17.9167C4.77778 16.9663 5.15531 16.0549 5.82731 15.3829C6.49932 14.7109 7.41075 14.3333 8.36111 14.3333C9.31147 14.3333 10.2229 14.7109 10.8949 15.3829C11.5669 16.0549 11.9444 16.9663 11.9444 17.9167C11.9444 18.867 11.5669 19.7785 10.8949 20.4505C10.2229 21.1225 9.31147 21.5 8.36111 21.5ZM21.5 0C15.7978 0 10.3292 2.26517 6.2972 6.2972C2.26517 10.3292 0 15.7978 0 21.5C0 27.2022 2.26517 32.6708 6.2972 36.7028C10.3292 40.7348 15.7978 43 21.5 43C22.4504 43 23.3618 42.6225 24.0338 41.9505C24.7058 41.2785 25.0833 40.367 25.0833 39.4167C25.0833 38.485 24.725 37.6489 24.1517 37.0278C23.6022 36.3828 23.2439 35.5467 23.2439 34.6389C23.2439 33.6885 23.6214 32.7771 24.2934 32.1051C24.9654 31.4331 25.8769 31.0556 26.8272 31.0556H31.0556C34.2234 31.0556 37.2615 29.7971 39.5016 27.5571C41.7416 25.3171 43 22.279 43 19.1111C43 8.55222 33.3728 0 21.5 0Z" fill="url(#paint0_linear_39_984)"/>
<defs>
<linearGradient id="paint0_linear_39_984" x1="2.60305e-07" y1="21.5" x2="43" y2="21.5" gradientUnits="userSpaceOnUse">
<stop stop-color="#E60073"/>
<stop offset="1" stop-color="#A630F9"/>
</linearGradient>
</defs>
</svg>
